G04 #@! TF.FileFunction,Copper,L2,Bot,Signal*
%FSLAX46Y46*%
G04 Gerber Fmt 4.6, Leading zero omitted, Abs format (unit mm)*
G04 Created by KiCad (PCBNEW 4.0.5) date Friday, March 24, 2017 'PMt' 10:18:35 PM*
%MOMM*%
%LPD*%
G01*
G04 APERTURE LIST*
%ADD10C,0.100000*%
%ADD11R,1.800000X1.800000*%
%ADD12C,1.800000*%
%ADD13R,1.600000X1.600000*%
%ADD14O,1.600000X1.600000*%
%ADD15C,10.160000*%
%ADD16C,0.254000*%
G04 APERTURE END LIST*
D10*
D11*
X146050000Y-71120000D03*
D12*
X143510000Y-71120000D03*
D13*
X153670000Y-78740000D03*
D14*
X161290000Y-71120000D03*
X156210000Y-78740000D03*
X158750000Y-71120000D03*
X158750000Y-78740000D03*
X156210000Y-71120000D03*
X161290000Y-78740000D03*
X153670000Y-71120000D03*
D15*
X142240000Y-88900000D03*
X172210000Y-88900000D03*
X157230000Y-88900000D03*
D16*
G36*
X178308000Y-94488000D02*
X173617394Y-94488000D01*
X175362142Y-93800765D01*
X175531444Y-93687641D01*
X176127223Y-92996828D01*
X172210000Y-89079605D01*
X168292777Y-92996828D01*
X168888556Y-93687641D01*
X170729158Y-94488000D01*
X158671554Y-94488000D01*
X160463058Y-93747766D01*
X162072116Y-92141514D01*
X162944005Y-90041771D01*
X162944096Y-89936758D01*
X166476011Y-89936758D01*
X167309235Y-92052142D01*
X167422359Y-92221444D01*
X168113172Y-92817223D01*
X172030395Y-88900000D01*
X172389605Y-88900000D01*
X176306828Y-92817223D01*
X176997641Y-92221444D01*
X177904265Y-90136463D01*
X177943989Y-87863242D01*
X177110765Y-85747858D01*
X176997641Y-85578556D01*
X176306828Y-84982777D01*
X172389605Y-88900000D01*
X172030395Y-88900000D01*
X168113172Y-84982777D01*
X167422359Y-85578556D01*
X166515735Y-87663537D01*
X166476011Y-89936758D01*
X162944096Y-89936758D01*
X162945989Y-87768204D01*
X162077766Y-85666942D01*
X161215503Y-84803172D01*
X168292777Y-84803172D01*
X172210000Y-88720395D01*
X176127223Y-84803172D01*
X175531444Y-84112359D01*
X173446463Y-83205735D01*
X171173242Y-83166011D01*
X169057858Y-83999235D01*
X168888556Y-84112359D01*
X168292777Y-84803172D01*
X161215503Y-84803172D01*
X160471514Y-84057884D01*
X158371771Y-83185995D01*
X156098204Y-83184011D01*
X153996942Y-84052234D01*
X152387884Y-85658486D01*
X151515995Y-87758229D01*
X151514011Y-90031796D01*
X152382234Y-92133058D01*
X153988486Y-93742116D01*
X155784775Y-94488000D01*
X143681554Y-94488000D01*
X145473058Y-93747766D01*
X147082116Y-92141514D01*
X147954005Y-90041771D01*
X147955989Y-87768204D01*
X147087766Y-85666942D01*
X145481514Y-84057884D01*
X143381771Y-83185995D01*
X141108204Y-83184011D01*
X139006942Y-84052234D01*
X137397884Y-85658486D01*
X136525995Y-87758229D01*
X136524011Y-90031796D01*
X137392234Y-92133058D01*
X138998486Y-93742116D01*
X140794775Y-94488000D01*
X135382000Y-94488000D01*
X135382000Y-77940000D01*
X152222560Y-77940000D01*
X152222560Y-79540000D01*
X152266838Y-79775317D01*
X152405910Y-79991441D01*
X152618110Y-80136431D01*
X152870000Y-80187440D01*
X154470000Y-80187440D01*
X154705317Y-80143162D01*
X154921441Y-80004090D01*
X155066431Y-79791890D01*
X155097815Y-79636911D01*
X155195302Y-79782811D01*
X155660849Y-80093880D01*
X156210000Y-80203113D01*
X156759151Y-80093880D01*
X157224698Y-79782811D01*
X157480000Y-79400725D01*
X157735302Y-79782811D01*
X158200849Y-80093880D01*
X158750000Y-80203113D01*
X159299151Y-80093880D01*
X159764698Y-79782811D01*
X160020000Y-79400725D01*
X160275302Y-79782811D01*
X160740849Y-80093880D01*
X161290000Y-80203113D01*
X161839151Y-80093880D01*
X162304698Y-79782811D01*
X162615767Y-79317264D01*
X162725000Y-78768113D01*
X162725000Y-78711887D01*
X162615767Y-78162736D01*
X162304698Y-77697189D01*
X161839151Y-77386120D01*
X161290000Y-77276887D01*
X160740849Y-77386120D01*
X160275302Y-77697189D01*
X160020000Y-78079275D01*
X159764698Y-77697189D01*
X159299151Y-77386120D01*
X158750000Y-77276887D01*
X158200849Y-77386120D01*
X157735302Y-77697189D01*
X157480000Y-78079275D01*
X157224698Y-77697189D01*
X156759151Y-77386120D01*
X156210000Y-77276887D01*
X155660849Y-77386120D01*
X155195302Y-77697189D01*
X155098899Y-77841465D01*
X155073162Y-77704683D01*
X154934090Y-77488559D01*
X154721890Y-77343569D01*
X154470000Y-77292560D01*
X152870000Y-77292560D01*
X152634683Y-77336838D01*
X152418559Y-77475910D01*
X152273569Y-77688110D01*
X152222560Y-77940000D01*
X135382000Y-77940000D01*
X135382000Y-71423991D01*
X141974735Y-71423991D01*
X142207932Y-71988371D01*
X142639357Y-72420551D01*
X143203330Y-72654733D01*
X143813991Y-72655265D01*
X144378371Y-72422068D01*
X144546613Y-72254120D01*
X144546838Y-72255317D01*
X144685910Y-72471441D01*
X144898110Y-72616431D01*
X145150000Y-72667440D01*
X146950000Y-72667440D01*
X147185317Y-72623162D01*
X147401441Y-72484090D01*
X147546431Y-72271890D01*
X147597440Y-72020000D01*
X147597440Y-71469041D01*
X152278086Y-71469041D01*
X152517611Y-71975134D01*
X152932577Y-72351041D01*
X153320961Y-72511904D01*
X153543000Y-72389915D01*
X153543000Y-71247000D01*
X152399371Y-71247000D01*
X152278086Y-71469041D01*
X147597440Y-71469041D01*
X147597440Y-70770959D01*
X152278086Y-70770959D01*
X152399371Y-70993000D01*
X153543000Y-70993000D01*
X153543000Y-69850085D01*
X153797000Y-69850085D01*
X153797000Y-70993000D01*
X153817000Y-70993000D01*
X153817000Y-71247000D01*
X153797000Y-71247000D01*
X153797000Y-72389915D01*
X154019039Y-72511904D01*
X154407423Y-72351041D01*
X154822389Y-71975134D01*
X154925014Y-71758297D01*
X155195302Y-72162811D01*
X155660849Y-72473880D01*
X156210000Y-72583113D01*
X156759151Y-72473880D01*
X157224698Y-72162811D01*
X157480000Y-71780725D01*
X157735302Y-72162811D01*
X158200849Y-72473880D01*
X158750000Y-72583113D01*
X159299151Y-72473880D01*
X159764698Y-72162811D01*
X160020000Y-71780725D01*
X160275302Y-72162811D01*
X160740849Y-72473880D01*
X161290000Y-72583113D01*
X161839151Y-72473880D01*
X162304698Y-72162811D01*
X162615767Y-71697264D01*
X162725000Y-71148113D01*
X162725000Y-71091887D01*
X162615767Y-70542736D01*
X162304698Y-70077189D01*
X161839151Y-69766120D01*
X161290000Y-69656887D01*
X160740849Y-69766120D01*
X160275302Y-70077189D01*
X160020000Y-70459275D01*
X159764698Y-70077189D01*
X159299151Y-69766120D01*
X158750000Y-69656887D01*
X158200849Y-69766120D01*
X157735302Y-70077189D01*
X157480000Y-70459275D01*
X157224698Y-70077189D01*
X156759151Y-69766120D01*
X156210000Y-69656887D01*
X155660849Y-69766120D01*
X155195302Y-70077189D01*
X154925014Y-70481703D01*
X154822389Y-70264866D01*
X154407423Y-69888959D01*
X154019039Y-69728096D01*
X153797000Y-69850085D01*
X153543000Y-69850085D01*
X153320961Y-69728096D01*
X152932577Y-69888959D01*
X152517611Y-70264866D01*
X152278086Y-70770959D01*
X147597440Y-70770959D01*
X147597440Y-70220000D01*
X147553162Y-69984683D01*
X147414090Y-69768559D01*
X147201890Y-69623569D01*
X146950000Y-69572560D01*
X145150000Y-69572560D01*
X144914683Y-69616838D01*
X144698559Y-69755910D01*
X144553569Y-69968110D01*
X144549433Y-69988534D01*
X144380643Y-69819449D01*
X143816670Y-69585267D01*
X143206009Y-69584735D01*
X142641629Y-69817932D01*
X142209449Y-70249357D01*
X141975267Y-70813330D01*
X141974735Y-71423991D01*
X135382000Y-71423991D01*
X135382000Y-66802000D01*
X178308000Y-66802000D01*
X178308000Y-94488000D01*
X178308000Y-94488000D01*
G37*
X178308000Y-94488000D02*
X173617394Y-94488000D01*
X175362142Y-93800765D01*
X175531444Y-93687641D01*
X176127223Y-92996828D01*
X172210000Y-89079605D01*
X168292777Y-92996828D01*
X168888556Y-93687641D01*
X170729158Y-94488000D01*
X158671554Y-94488000D01*
X160463058Y-93747766D01*
X162072116Y-92141514D01*
X162944005Y-90041771D01*
X162944096Y-89936758D01*
X166476011Y-89936758D01*
X167309235Y-92052142D01*
X167422359Y-92221444D01*
X168113172Y-92817223D01*
X172030395Y-88900000D01*
X172389605Y-88900000D01*
X176306828Y-92817223D01*
X176997641Y-92221444D01*
X177904265Y-90136463D01*
X177943989Y-87863242D01*
X177110765Y-85747858D01*
X176997641Y-85578556D01*
X176306828Y-84982777D01*
X172389605Y-88900000D01*
X172030395Y-88900000D01*
X168113172Y-84982777D01*
X167422359Y-85578556D01*
X166515735Y-87663537D01*
X166476011Y-89936758D01*
X162944096Y-89936758D01*
X162945989Y-87768204D01*
X162077766Y-85666942D01*
X161215503Y-84803172D01*
X168292777Y-84803172D01*
X172210000Y-88720395D01*
X176127223Y-84803172D01*
X175531444Y-84112359D01*
X173446463Y-83205735D01*
X171173242Y-83166011D01*
X169057858Y-83999235D01*
X168888556Y-84112359D01*
X168292777Y-84803172D01*
X161215503Y-84803172D01*
X160471514Y-84057884D01*
X158371771Y-83185995D01*
X156098204Y-83184011D01*
X153996942Y-84052234D01*
X152387884Y-85658486D01*
X151515995Y-87758229D01*
X151514011Y-90031796D01*
X152382234Y-92133058D01*
X153988486Y-93742116D01*
X155784775Y-94488000D01*
X143681554Y-94488000D01*
X145473058Y-93747766D01*
X147082116Y-92141514D01*
X147954005Y-90041771D01*
X147955989Y-87768204D01*
X147087766Y-85666942D01*
X145481514Y-84057884D01*
X143381771Y-83185995D01*
X141108204Y-83184011D01*
X139006942Y-84052234D01*
X137397884Y-85658486D01*
X136525995Y-87758229D01*
X136524011Y-90031796D01*
X137392234Y-92133058D01*
X138998486Y-93742116D01*
X140794775Y-94488000D01*
X135382000Y-94488000D01*
X135382000Y-77940000D01*
X152222560Y-77940000D01*
X152222560Y-79540000D01*
X152266838Y-79775317D01*
X152405910Y-79991441D01*
X152618110Y-80136431D01*
X152870000Y-80187440D01*
X154470000Y-80187440D01*
X154705317Y-80143162D01*
X154921441Y-80004090D01*
X155066431Y-79791890D01*
X155097815Y-79636911D01*
X155195302Y-79782811D01*
X155660849Y-80093880D01*
X156210000Y-80203113D01*
X156759151Y-80093880D01*
X157224698Y-79782811D01*
X157480000Y-79400725D01*
X157735302Y-79782811D01*
X158200849Y-80093880D01*
X158750000Y-80203113D01*
X159299151Y-80093880D01*
X159764698Y-79782811D01*
X160020000Y-79400725D01*
X160275302Y-79782811D01*
X160740849Y-80093880D01*
X161290000Y-80203113D01*
X161839151Y-80093880D01*
X162304698Y-79782811D01*
X162615767Y-79317264D01*
X162725000Y-78768113D01*
X162725000Y-78711887D01*
X162615767Y-78162736D01*
X162304698Y-77697189D01*
X161839151Y-77386120D01*
X161290000Y-77276887D01*
X160740849Y-77386120D01*
X160275302Y-77697189D01*
X160020000Y-78079275D01*
X159764698Y-77697189D01*
X159299151Y-77386120D01*
X158750000Y-77276887D01*
X158200849Y-77386120D01*
X157735302Y-77697189D01*
X157480000Y-78079275D01*
X157224698Y-77697189D01*
X156759151Y-77386120D01*
X156210000Y-77276887D01*
X155660849Y-77386120D01*
X155195302Y-77697189D01*
X155098899Y-77841465D01*
X155073162Y-77704683D01*
X154934090Y-77488559D01*
X154721890Y-77343569D01*
X154470000Y-77292560D01*
X152870000Y-77292560D01*
X152634683Y-77336838D01*
X152418559Y-77475910D01*
X152273569Y-77688110D01*
X152222560Y-77940000D01*
X135382000Y-77940000D01*
X135382000Y-71423991D01*
X141974735Y-71423991D01*
X142207932Y-71988371D01*
X142639357Y-72420551D01*
X143203330Y-72654733D01*
X143813991Y-72655265D01*
X144378371Y-72422068D01*
X144546613Y-72254120D01*
X144546838Y-72255317D01*
X144685910Y-72471441D01*
X144898110Y-72616431D01*
X145150000Y-72667440D01*
X146950000Y-72667440D01*
X147185317Y-72623162D01*
X147401441Y-72484090D01*
X147546431Y-72271890D01*
X147597440Y-72020000D01*
X147597440Y-71469041D01*
X152278086Y-71469041D01*
X152517611Y-71975134D01*
X152932577Y-72351041D01*
X153320961Y-72511904D01*
X153543000Y-72389915D01*
X153543000Y-71247000D01*
X152399371Y-71247000D01*
X152278086Y-71469041D01*
X147597440Y-71469041D01*
X147597440Y-70770959D01*
X152278086Y-70770959D01*
X152399371Y-70993000D01*
X153543000Y-70993000D01*
X153543000Y-69850085D01*
X153797000Y-69850085D01*
X153797000Y-70993000D01*
X153817000Y-70993000D01*
X153817000Y-71247000D01*
X153797000Y-71247000D01*
X153797000Y-72389915D01*
X154019039Y-72511904D01*
X154407423Y-72351041D01*
X154822389Y-71975134D01*
X154925014Y-71758297D01*
X155195302Y-72162811D01*
X155660849Y-72473880D01*
X156210000Y-72583113D01*
X156759151Y-72473880D01*
X157224698Y-72162811D01*
X157480000Y-71780725D01*
X157735302Y-72162811D01*
X158200849Y-72473880D01*
X158750000Y-72583113D01*
X159299151Y-72473880D01*
X159764698Y-72162811D01*
X160020000Y-71780725D01*
X160275302Y-72162811D01*
X160740849Y-72473880D01*
X161290000Y-72583113D01*
X161839151Y-72473880D01*
X162304698Y-72162811D01*
X162615767Y-71697264D01*
X162725000Y-71148113D01*
X162725000Y-71091887D01*
X162615767Y-70542736D01*
X162304698Y-70077189D01*
X161839151Y-69766120D01*
X161290000Y-69656887D01*
X160740849Y-69766120D01*
X160275302Y-70077189D01*
X160020000Y-70459275D01*
X159764698Y-70077189D01*
X159299151Y-69766120D01*
X158750000Y-69656887D01*
X158200849Y-69766120D01*
X157735302Y-70077189D01*
X157480000Y-70459275D01*
X157224698Y-70077189D01*
X156759151Y-69766120D01*
X156210000Y-69656887D01*
X155660849Y-69766120D01*
X155195302Y-70077189D01*
X154925014Y-70481703D01*
X154822389Y-70264866D01*
X154407423Y-69888959D01*
X154019039Y-69728096D01*
X153797000Y-69850085D01*
X153543000Y-69850085D01*
X153320961Y-69728096D01*
X152932577Y-69888959D01*
X152517611Y-70264866D01*
X152278086Y-70770959D01*
X147597440Y-70770959D01*
X147597440Y-70220000D01*
X147553162Y-69984683D01*
X147414090Y-69768559D01*
X147201890Y-69623569D01*
X146950000Y-69572560D01*
X145150000Y-69572560D01*
X144914683Y-69616838D01*
X144698559Y-69755910D01*
X144553569Y-69968110D01*
X144549433Y-69988534D01*
X144380643Y-69819449D01*
X143816670Y-69585267D01*
X143206009Y-69584735D01*
X142641629Y-69817932D01*
X142209449Y-70249357D01*
X141975267Y-70813330D01*
X141974735Y-71423991D01*
X135382000Y-71423991D01*
X135382000Y-66802000D01*
X178308000Y-66802000D01*
X178308000Y-94488000D01*
M02*
